<svg width="133.25" height="2440" viewBox="0 0 133.25 2440" xmlns="http://www.w3.org/2000/svg" xmlns:xlink="http://www.w3.org/1999/xlink"><svg width="44" height="46" viewBox="-11 -11 44 44" fill="none" id="header--phone"><path d="M16.153 14.33h0l.006.001c1.313.434 2.695.654 4.104.654.682 0 1.237.556 1.237 1.237v4.041c0 .682-.555 1.237-1.237 1.237C9.367 21.5.5 12.633.5 1.737.5 1.055 1.055.5 1.737.5H5.79c.681 0 1.236.555 1.236 1.237 0 1.406.221 2.788.655 4.104.142.457.022.937-.307 1.266l-.025.025-.02.028-1.836 2.438-.191.254.149.281c1.557 2.935 3.463 4.84 6.415 6.415l.282.15.255-.193L14.9 14.62l.03-.022.025-.026c.262-.266.753-.395 1.198-.242z" stroke="#fff"/></svg><svg width="43" height="48" fill="none" viewBox="-11 -11 43 48" id="slider--arrow-left" y="46"><path d="M0 13L21 .876v24.248L0 13z" fill="#fff"/></svg><svg width="43" height="48" fill="none" viewBox="-11 -11 43 48" id="slider--arrow-right" y="94"><path d="M21 13L0 25.124V.876L21 13z" fill="#fff"/></svg><svg width="46" height="46" viewBox="-11 -11 33 46" fill="none" id="socials--fb" y="142"><path fill-rule="evenodd" clip-rule="evenodd" d="M7.315 24H2.437V11.998H0V7.864h2.437V5.38C2.437 2.007 3.813 0 7.723 0h3.255v4.137H8.944c-1.523 0-1.623.578-1.623 1.656l-.007 2.07H11l-.431 4.135H7.314V24z" fill="#fff"/></svg><svg width="44" height="46" fill="none" viewBox="-11 -11 44 46" id="socials--hb" y="188"><path fill-rule="evenodd" clip-rule="evenodd" d="M7.368 9.818h7.685V0H22v24h-6.947v-8.727H7.368V24H0V0h7.368v9.818z" fill="#fff"/></svg><svg width="46" height="46" fill="none" viewBox="-11 -11 46 46" id="socials--instagram" y="234"><path d="M17.377 0H6.623A6.63 6.63 0 0 0 0 6.623v10.754A6.63 6.63 0 0 0 6.623 24h10.754A6.63 6.63 0 0 0 24 17.377V6.623A6.63 6.63 0 0 0 17.377 0zm4.494 17.377a4.499 4.499 0 0 1-4.494 4.494H6.623a4.499 4.499 0 0 1-4.494-4.494V6.623A4.499 4.499 0 0 1 6.623 2.13h10.754a4.499 4.499 0 0 1 4.494 4.494v10.754z" fill="#fff"/><path d="M12 6.462A5.545 5.545 0 0 0 6.462 12 5.545 5.545 0 0 0 12 17.538 5.545 5.545 0 0 0 17.538 12 5.545 5.545 0 0 0 12 6.462zm0 9.17A3.635 3.635 0 0 1 8.369 12 3.636 3.636 0 0 1 12 8.369 3.636 3.636 0 0 1 15.631 12 3.635 3.635 0 0 1 12 15.631zm6-11.017a1.39 1.39 0 0 0-.978.406 1.391 1.391 0 0 0-.407.979c0 .364.149.721.407.98.257.256.614.405.978.405.365 0 .721-.149.98-.406.257-.258.405-.615.405-.979a1.39 1.39 0 0 0-.406-.98A1.39 1.39 0 0 0 18 4.616z" fill="#fff"/></svg><svg width="50" height="46" fill="none" viewBox="-11 -11 50 46" id="socials--twitter" y="280"><path fill-rule="evenodd" clip-rule="evenodd" d="M24.701 3.794a6.014 6.014 0 0 0 2.525-3.35 11.14 11.14 0 0 1-3.649 1.47C22.532.734 21.038 0 19.385 0c-3.172 0-5.743 2.713-5.743 6.058 0 .475.048.938.147 1.38-4.773-.253-9.005-2.663-11.84-6.33a6.299 6.299 0 0 0-.777 3.047c0 2.1 1.014 3.955 2.555 5.044a5.539 5.539 0 0 1-2.603-.758v.075c0 2.936 1.979 5.386 4.61 5.94-.483.142-.99.213-1.515.213a5.4 5.4 0 0 1-1.08-.107c.73 2.406 2.851 4.16 5.366 4.207-1.967 1.626-4.444 2.593-7.134 2.593-.464 0-.922-.026-1.371-.083C2.542 22.996 5.562 24 8.806 24c10.567 0 16.343-9.232 16.343-17.238 0-.264-.004-.525-.015-.784A12.008 12.008 0 0 0 28 2.841a11.01 11.01 0 0 1-3.299.953z" fill="#fff"/></svg><svg width="54" height="46" viewBox="-11 -11 54 40" fill="none" id="socials--vk" y="326"><path fill-rule="evenodd" clip-rule="evenodd" d="M17.57 17.925s.577-.064.873-.377c.27-.287.261-.828.261-.828s-.036-2.53 1.155-2.903c1.174-.367 2.681 2.446 4.28 3.527 1.209.818 2.126.64 2.126.64l4.274-.06s2.236-.135 1.176-1.868c-.088-.142-.618-1.282-3.177-3.625-2.681-2.452-2.321-2.055.906-6.298C31.41 3.55 32.195 1.973 31.95 1.3c-.233-.645-1.68-.474-1.68-.474l-4.81.03s-.358-.049-.622.107c-.259.153-.426.51-.426.51s-.76 1.998-1.776 3.698c-2.143 3.587-3 3.777-3.35 3.554-.815-.52-.612-2.086-.612-3.199 0-3.476.536-4.925-1.04-5.3C17.11.1 16.726.018 15.387.004c-1.716-.017-3.169.006-3.992.403-.548.264-.97.853-.712.887.318.042 1.037.191 1.42.704.492.662.475 2.146.475 2.146s.283 4.093-.662 4.6c-.648.35-1.537-.362-3.448-3.617-.978-1.666-1.717-3.509-1.717-3.509s-.142-.344-.397-.53c-.309-.223-.74-.292-.74-.292l-4.57.029s-.688.018-.94.313c-.224.26-.017.803-.017.803s3.58 8.257 7.633 12.419c3.717 3.815 7.937 3.565 7.937 3.565h1.912z" fill="#fff"/></svg><svg width="50" height="46" viewBox="-11 -11 50 42" fill="none" id="socials--youtube" y="372"><path fill-rule="evenodd" clip-rule="evenodd" d="M11.136 14.22V5.78L18.455 10l-7.319 4.22zM27.415 3.124A3.543 3.543 0 0 0 24.939.597C22.756 0 14 0 14 0S5.244 0 3.06.597A3.543 3.543 0 0 0 .586 3.123C0 5.351 0 10 0 10s0 4.649.585 6.877a3.544 3.544 0 0 0 2.476 2.526C5.244 20 14 20 14 20s8.756 0 10.94-.597a3.544 3.544 0 0 0 2.475-2.526C28 14.649 28 10 28 10s0-4.649-.585-6.877z" fill="#fff"/></svg><svg width="133.25" height="2022" viewBox="-13.42 -13.42 162.56 2466.84" id="sprite" y="418"><svg width="44" height="46" viewBox="-11 -11 44 44" fill="none"><path d="M16.153 14.33h0l.006.001c1.313.434 2.695.654 4.104.654a1.24 1.24 0 0 1 1.237 1.237v4.041c0 .682-.555 1.237-1.237 1.237C9.367 21.5.5 12.633.5 1.737.5 1.055 1.055.5 1.737.5H5.79c.681 0 1.236.555 1.236 1.237 0 1.406.221 2.788.655 4.104a1.25 1.25 0 0 1-.307 1.266l-.025.025-.02.028-1.836 2.438-.191.254.149.281c1.557 2.935 3.463 4.84 6.415 6.415l.282.15.255-.193L14.9 14.62l.03-.022.025-.026c.262-.266.753-.395 1.198-.242z" stroke="#fff"/></svg><svg width="43" height="48" fill="none" viewBox="-11 -11 43 48" y="46"><path d="M0 13L21 .876v24.248L0 13z" fill="#fff"/></svg><svg width="43" height="48" fill="none" viewBox="-11 -11 43 48" y="94"><path d="M21 13L0 25.124V.876L21 13z" fill="#fff"/></svg><svg width="46" height="46" viewBox="-11 -11 33 46" fill="none" y="142"><path fill-rule="evenodd" clip-rule="evenodd" d="M7.315 24H2.437V11.998H0V7.864h2.437V5.38C2.437 2.007 3.813 0 7.723 0h3.255v4.137H8.944c-1.523 0-1.623.578-1.623 1.656l-.007 2.07H11l-.431 4.135H7.314V24z" fill="#fff"/></svg><svg width="44" height="46" fill="none" viewBox="-11 -11 44 46" y="188"><path fill-rule="evenodd" clip-rule="evenodd" d="M7.368 9.818h7.685V0H22v24h-6.947v-8.727H7.368V24H0V0h7.368v9.818z" fill="#fff"/></svg><svg width="46" height="46" fill="none" viewBox="-11 -11 46 46" y="234"><path d="M17.377 0H6.623A6.63 6.63 0 0 0 0 6.623v10.754A6.63 6.63 0 0 0 6.623 24h10.754A6.63 6.63 0 0 0 24 17.377V6.623A6.63 6.63 0 0 0 17.377 0zm4.494 17.377a4.499 4.499 0 0 1-4.494 4.494H6.623a4.499 4.499 0 0 1-4.494-4.494V6.623A4.499 4.499 0 0 1 6.623 2.13h10.754a4.499 4.499 0 0 1 4.494 4.494v10.754z" fill="#fff"/><path d="M12 6.462A5.545 5.545 0 0 0 6.462 12 5.545 5.545 0 0 0 12 17.538 5.545 5.545 0 0 0 17.538 12 5.545 5.545 0 0 0 12 6.462zm0 9.17A3.635 3.635 0 0 1 8.369 12 3.636 3.636 0 0 1 12 8.369 3.636 3.636 0 0 1 15.631 12 3.635 3.635 0 0 1 12 15.631zm6-11.017a1.39 1.39 0 0 0-.978.406 1.391 1.391 0 0 0-.407.979c0 .364.149.721.407.98.257.256.614.405.978.405.365 0 .721-.149.98-.406.257-.258.405-.615.405-.979a1.39 1.39 0 0 0-.406-.98A1.39 1.39 0 0 0 18 4.616z" fill="#fff"/></svg><svg width="50" height="46" fill="none" viewBox="-11 -11 50 46" y="280"><path fill-rule="evenodd" clip-rule="evenodd" d="M24.701 3.794a6.014 6.014 0 0 0 2.525-3.35 11.14 11.14 0 0 1-3.649 1.47C22.532.734 21.038 0 19.385 0c-3.172 0-5.743 2.713-5.743 6.058 0 .475.048.938.147 1.38-4.773-.253-9.005-2.663-11.84-6.33a6.299 6.299 0 0 0-.777 3.047c0 2.1 1.014 3.955 2.555 5.044a5.539 5.539 0 0 1-2.603-.758v.075c0 2.936 1.979 5.386 4.61 5.94-.483.142-.99.213-1.515.213a5.4 5.4 0 0 1-1.08-.107c.73 2.406 2.851 4.16 5.366 4.207-1.967 1.626-4.444 2.593-7.134 2.593-.464 0-.922-.026-1.371-.083C2.542 22.996 5.562 24 8.806 24c10.567 0 16.343-9.232 16.343-17.238 0-.264-.004-.525-.015-.784A12.008 12.008 0 0 0 28 2.841a11.01 11.01 0 0 1-3.299.953z" fill="#fff"/></svg><svg width="54" height="46" viewBox="-11 -11 54 40" fill="none" y="326"><path fill-rule="evenodd" clip-rule="evenodd" d="M17.57 17.925s.577-.064.873-.377c.27-.287.261-.828.261-.828s-.036-2.53 1.155-2.903c1.174-.367 2.681 2.446 4.28 3.527 1.209.818 2.126.64 2.126.64l4.274-.06s2.236-.135 1.176-1.868c-.088-.142-.618-1.282-3.177-3.625-2.681-2.452-2.321-2.055.906-6.298C31.41 3.55 32.195 1.973 31.95 1.3c-.233-.645-1.68-.474-1.68-.474l-4.81.03s-.358-.049-.622.107c-.259.153-.426.51-.426.51s-.76 1.998-1.776 3.698c-2.143 3.587-3 3.777-3.35 3.554-.815-.52-.612-2.086-.612-3.199 0-3.476.536-4.925-1.04-5.3C17.11.1 16.726.018 15.387.004c-1.716-.017-3.169.006-3.992.403-.548.264-.97.853-.712.887.318.042 1.037.191 1.42.704.492.662.475 2.146.475 2.146s.283 4.093-.662 4.6c-.648.35-1.537-.362-3.448-3.617-.978-1.666-1.717-3.509-1.717-3.509s-.142-.344-.397-.53c-.309-.223-.74-.292-.74-.292l-4.57.029s-.688.018-.94.313c-.224.26-.017.803-.017.803s3.58 8.257 7.633 12.419c3.717 3.815 7.937 3.565 7.937 3.565h1.912z" fill="#fff"/></svg><svg width="50" height="46" viewBox="-11 -11 50 42" fill="none" y="372"><path fill-rule="evenodd" clip-rule="evenodd" d="M11.136 14.22V5.78L18.455 10l-7.319 4.22zM27.415 3.124A3.543 3.543 0 0 0 24.939.597C22.756 0 14 0 14 0S5.244 0 3.06.597A3.543 3.543 0 0 0 .586 3.123C0 5.351 0 10 0 10s0 4.649.585 6.877a3.544 3.544 0 0 0 2.476 2.526C5.244 20 14 20 14 20s8.756 0 10.94-.597a3.544 3.544 0 0 0 2.475-2.526C28 14.649 28 10 28 10s0-4.649-.585-6.877z" fill="#fff"/></svg><svg width="135.72" height="2022" viewBox="-13.42 -13.42 165.58 2466.84" y="418"><svg width="44" height="46" viewBox="-11 -11 44 44" fill="none"><path d="M16.153 14.33h0l.006.001c1.313.434 2.695.654 4.104.654a1.24 1.24 0 0 1 1.237 1.237v4.041c0 .682-.555 1.237-1.237 1.237C9.367 21.5.5 12.633.5 1.737.5 1.055 1.055.5 1.737.5H5.79c.681 0 1.236.555 1.236 1.237 0 1.406.221 2.788.655 4.104a1.25 1.25 0 0 1-.307 1.266l-.025.025-.02.028-1.836 2.438-.191.254.149.281c1.557 2.935 3.463 4.84 6.415 6.415l.282.15.255-.193L14.9 14.62l.03-.022.025-.026c.262-.266.753-.395 1.198-.242z" stroke="#fff"/></svg><svg width="43" height="48" fill="none" viewBox="-11 -11 43 48" y="46"><path d="M0 13L21 .876v24.248L0 13z" fill="#fff"/></svg><svg width="43" height="48" fill="none" viewBox="-11 -11 43 48" y="94"><path d="M21 13L0 25.124V.876L21 13z" fill="#fff"/></svg><svg width="46" height="46" viewBox="-11 -11 33 46" fill="none" y="142"><path fill-rule="evenodd" clip-rule="evenodd" d="M7.315 24H2.437V11.998H0V7.864h2.437V5.38C2.437 2.007 3.813 0 7.723 0h3.255v4.137H8.944c-1.523 0-1.623.578-1.623 1.656l-.007 2.07H11l-.431 4.135H7.314V24z" fill="#fff"/></svg><svg width="44" height="46" fill="none" viewBox="-11 -11 44 46" y="188"><path fill-rule="evenodd" clip-rule="evenodd" d="M7.368 9.818h7.685V0H22v24h-6.947v-8.727H7.368V24H0V0h7.368v9.818z" fill="#fff"/></svg><svg width="46" height="46" fill="none" viewBox="-11 -11 46 46" y="234"><path d="M17.377 0H6.623A6.63 6.63 0 0 0 0 6.623v10.754A6.63 6.63 0 0 0 6.623 24h10.754A6.63 6.63 0 0 0 24 17.377V6.623A6.63 6.63 0 0 0 17.377 0zm4.494 17.377a4.499 4.499 0 0 1-4.494 4.494H6.623a4.499 4.499 0 0 1-4.494-4.494V6.623A4.499 4.499 0 0 1 6.623 2.13h10.754a4.499 4.499 0 0 1 4.494 4.494v10.754z" fill="#fff"/><path d="M12 6.462A5.545 5.545 0 0 0 6.462 12 5.545 5.545 0 0 0 12 17.538 5.545 5.545 0 0 0 17.538 12 5.545 5.545 0 0 0 12 6.462zm0 9.17A3.635 3.635 0 0 1 8.369 12 3.636 3.636 0 0 1 12 8.369 3.636 3.636 0 0 1 15.631 12 3.635 3.635 0 0 1 12 15.631zm6-11.017a1.39 1.39 0 0 0-.978.406 1.391 1.391 0 0 0-.407.979c0 .364.149.721.407.98.257.256.614.405.978.405.365 0 .721-.149.98-.406.257-.258.405-.615.405-.979a1.39 1.39 0 0 0-.406-.98A1.39 1.39 0 0 0 18 4.616z" fill="#fff"/></svg><svg width="50" height="46" fill="none" viewBox="-11 -11 50 46" y="280"><path fill-rule="evenodd" clip-rule="evenodd" d="M24.701 3.794a6.014 6.014 0 0 0 2.525-3.35 11.14 11.14 0 0 1-3.649 1.47C22.532.734 21.038 0 19.385 0c-3.172 0-5.743 2.713-5.743 6.058 0 .475.048.938.147 1.38-4.773-.253-9.005-2.663-11.84-6.33a6.299 6.299 0 0 0-.777 3.047c0 2.1 1.014 3.955 2.555 5.044a5.539 5.539 0 0 1-2.603-.758v.075c0 2.936 1.979 5.386 4.61 5.94-.483.142-.99.213-1.515.213a5.4 5.4 0 0 1-1.08-.107c.73 2.406 2.851 4.16 5.366 4.207-1.967 1.626-4.444 2.593-7.134 2.593-.464 0-.922-.026-1.371-.083C2.542 22.996 5.562 24 8.806 24c10.567 0 16.343-9.232 16.343-17.238 0-.264-.004-.525-.015-.784A12.008 12.008 0 0 0 28 2.841a11.01 11.01 0 0 1-3.299.953z" fill="#fff"/></svg><svg width="54" height="46" viewBox="-11 -11 54 40" fill="none" y="326"><path fill-rule="evenodd" clip-rule="evenodd" d="M17.57 17.925s.577-.064.873-.377c.27-.287.261-.828.261-.828s-.036-2.53 1.155-2.903c1.174-.367 2.681 2.446 4.28 3.527 1.209.818 2.126.64 2.126.64l4.274-.06s2.236-.135 1.176-1.868c-.088-.142-.618-1.282-3.177-3.625-2.681-2.452-2.321-2.055.906-6.298C31.41 3.55 32.195 1.973 31.95 1.3c-.233-.645-1.68-.474-1.68-.474l-4.81.03s-.358-.049-.622.107c-.259.153-.426.51-.426.51s-.76 1.998-1.776 3.698c-2.143 3.587-3 3.777-3.35 3.554-.815-.52-.612-2.086-.612-3.199 0-3.476.536-4.925-1.04-5.3C17.11.1 16.726.018 15.387.004c-1.716-.017-3.169.006-3.992.403-.548.264-.97.853-.712.887.318.042 1.037.191 1.42.704.492.662.475 2.146.475 2.146s.283 4.093-.662 4.6c-.648.35-1.537-.362-3.448-3.617-.978-1.666-1.717-3.509-1.717-3.509s-.142-.344-.397-.53c-.309-.223-.74-.292-.74-.292l-4.57.029s-.688.018-.94.313c-.224.26-.017.803-.017.803s3.58 8.257 7.633 12.419c3.717 3.815 7.937 3.565 7.937 3.565h1.912z" fill="#fff"/></svg><svg width="50" height="46" viewBox="-11 -11 50 42" fill="none" y="372"><path fill-rule="evenodd" clip-rule="evenodd" d="M11.136 14.22V5.78L18.455 10l-7.319 4.22zM27.415 3.124A3.543 3.543 0 0 0 24.939.597C22.756 0 14 0 14 0S5.244 0 3.06.597A3.543 3.543 0 0 0 .586 3.123C0 5.351 0 10 0 10s0 4.649.585 6.877a3.544 3.544 0 0 0 2.476 2.526C5.244 20 14 20 14 20s8.756 0 10.94-.597a3.544 3.544 0 0 0 2.475-2.526C28 14.649 28 10 28 10s0-4.649-.585-6.877z" fill="#fff"/></svg><svg width="138.74" height="2022" viewBox="-13.42 -13.42 169.26 2466.84" y="418"><svg width="44" height="46" viewBox="-11 -11 44 44" fill="none"><path d="M16.153 14.33h0l.006.001c1.313.434 2.695.654 4.104.654a1.24 1.24 0 0 1 1.237 1.237v4.041c0 .682-.555 1.237-1.237 1.237C9.367 21.5.5 12.633.5 1.737.5 1.055 1.055.5 1.737.5H5.79c.681 0 1.236.555 1.236 1.237 0 1.406.221 2.788.655 4.104a1.25 1.25 0 0 1-.307 1.266l-.025.025-.02.028-1.836 2.438-.191.254.149.281c1.557 2.935 3.463 4.84 6.415 6.415l.282.15.255-.193L14.9 14.62l.03-.022.025-.026c.262-.266.753-.395 1.198-.242z" stroke="#fff"/></svg><svg width="43" height="48" fill="none" viewBox="-11 -11 43 48" y="46"><path d="M0 13L21 .876v24.248L0 13z" fill="#fff"/></svg><svg width="43" height="48" fill="none" viewBox="-11 -11 43 48" y="94"><path d="M21 13L0 25.124V.876L21 13z" fill="#fff"/></svg><svg width="46" height="46" viewBox="-11 -11 33 46" fill="none" y="142"><path fill-rule="evenodd" clip-rule="evenodd" d="M7.315 24H2.437V11.998H0V7.864h2.437V5.38C2.437 2.007 3.813 0 7.723 0h3.255v4.137H8.944c-1.523 0-1.623.578-1.623 1.656l-.007 2.07H11l-.431 4.135H7.314V24z" fill="#fff"/></svg><svg width="44" height="46" fill="none" viewBox="-11 -11 44 46" y="188"><path fill-rule="evenodd" clip-rule="evenodd" d="M7.368 9.818h7.685V0H22v24h-6.947v-8.727H7.368V24H0V0h7.368v9.818z" fill="#fff"/></svg><svg width="46" height="46" fill="none" viewBox="-11 -11 46 46" y="234"><path d="M17.377 0H6.623A6.63 6.63 0 0 0 0 6.623v10.754A6.63 6.63 0 0 0 6.623 24h10.754A6.63 6.63 0 0 0 24 17.377V6.623A6.63 6.63 0 0 0 17.377 0zm4.494 17.377a4.499 4.499 0 0 1-4.494 4.494H6.623a4.499 4.499 0 0 1-4.494-4.494V6.623A4.499 4.499 0 0 1 6.623 2.13h10.754a4.499 4.499 0 0 1 4.494 4.494v10.754z" fill="#fff"/><path d="M12 6.462A5.545 5.545 0 0 0 6.462 12 5.545 5.545 0 0 0 12 17.538 5.545 5.545 0 0 0 17.538 12 5.545 5.545 0 0 0 12 6.462zm0 9.17A3.635 3.635 0 0 1 8.369 12 3.636 3.636 0 0 1 12 8.369 3.636 3.636 0 0 1 15.631 12 3.635 3.635 0 0 1 12 15.631zm6-11.017a1.39 1.39 0 0 0-.978.406 1.391 1.391 0 0 0-.407.979c0 .364.149.721.407.98.257.256.614.405.978.405.365 0 .721-.149.98-.406.257-.258.405-.615.405-.979a1.39 1.39 0 0 0-.406-.98A1.39 1.39 0 0 0 18 4.616z" fill="#fff"/></svg><svg width="50" height="46" fill="none" viewBox="-11 -11 50 46" y="280"><path fill-rule="evenodd" clip-rule="evenodd" d="M24.701 3.794a6.014 6.014 0 0 0 2.525-3.35 11.14 11.14 0 0 1-3.649 1.47C22.532.734 21.038 0 19.385 0c-3.172 0-5.743 2.713-5.743 6.058 0 .475.048.938.147 1.38-4.773-.253-9.005-2.663-11.84-6.33a6.299 6.299 0 0 0-.777 3.047c0 2.1 1.014 3.955 2.555 5.044a5.539 5.539 0 0 1-2.603-.758v.075c0 2.936 1.979 5.386 4.61 5.94-.483.142-.99.213-1.515.213a5.4 5.4 0 0 1-1.08-.107c.73 2.406 2.851 4.16 5.366 4.207-1.967 1.626-4.444 2.593-7.134 2.593-.464 0-.922-.026-1.371-.083C2.542 22.996 5.562 24 8.806 24c10.567 0 16.343-9.232 16.343-17.238 0-.264-.004-.525-.015-.784A12.008 12.008 0 0 0 28 2.841a11.01 11.01 0 0 1-3.299.953z" fill="#fff"/></svg><svg width="54" height="46" viewBox="-11 -11 54 40" fill="none" y="326"><path fill-rule="evenodd" clip-rule="evenodd" d="M17.57 17.925s.577-.064.873-.377c.27-.287.261-.828.261-.828s-.036-2.53 1.155-2.903c1.174-.367 2.681 2.446 4.28 3.527 1.209.818 2.126.64 2.126.64l4.274-.06s2.236-.135 1.176-1.868c-.088-.142-.618-1.282-3.177-3.625-2.681-2.452-2.321-2.055.906-6.298C31.41 3.55 32.195 1.973 31.95 1.3c-.233-.645-1.68-.474-1.68-.474l-4.81.03s-.358-.049-.622.107c-.259.153-.426.51-.426.51s-.76 1.998-1.776 3.698c-2.143 3.587-3 3.777-3.35 3.554-.815-.52-.612-2.086-.612-3.199 0-3.476.536-4.925-1.04-5.3C17.11.1 16.726.018 15.387.004c-1.716-.017-3.169.006-3.992.403-.548.264-.97.853-.712.887.318.042 1.037.191 1.42.704.492.662.475 2.146.475 2.146s.283 4.093-.662 4.6c-.648.35-1.537-.362-3.448-3.617-.978-1.666-1.717-3.509-1.717-3.509s-.142-.344-.397-.53c-.309-.223-.74-.292-.74-.292l-4.57.029s-.688.018-.94.313c-.224.26-.017.803-.017.803s3.58 8.257 7.633 12.419c3.717 3.815 7.937 3.565 7.937 3.565h1.912z" fill="#fff"/></svg><svg width="50" height="46" viewBox="-11 -11 50 42" fill="none" y="372"><path fill-rule="evenodd" clip-rule="evenodd" d="M11.136 14.22V5.78L18.455 10l-7.319 4.22zM27.415 3.124A3.543 3.543 0 0 0 24.939.597C22.756 0 14 0 14 0S5.244 0 3.06.597A3.543 3.543 0 0 0 .586 3.123C0 5.351 0 10 0 10s0 4.649.585 6.877a3.544 3.544 0 0 0 2.476 2.526C5.244 20 14 20 14 20s8.756 0 10.94-.597a3.544 3.544 0 0 0 2.475-2.526C28 14.649 28 10 28 10s0-4.649-.585-6.877z" fill="#fff"/></svg><svg width="142.42" height="2022" viewBox="-13.42 -13.42 173.75 2466.84" y="418"><svg width="44" height="46" viewBox="-11 -11 44 44" fill="none"><path d="M16.153 14.33h0l.006.001c1.313.434 2.695.654 4.104.654a1.24 1.24 0 0 1 1.237 1.237v4.041c0 .682-.555 1.237-1.237 1.237C9.367 21.5.5 12.633.5 1.737.5 1.055 1.055.5 1.737.5H5.79c.681 0 1.236.555 1.236 1.237 0 1.406.221 2.788.655 4.104a1.25 1.25 0 0 1-.307 1.266l-.025.025-.02.028-1.836 2.438-.191.254.149.281c1.557 2.935 3.463 4.84 6.415 6.415l.282.15.255-.193L14.9 14.62l.03-.022.025-.026c.262-.266.753-.395 1.198-.242z" stroke="#fff"/></svg><svg width="43" height="48" fill="none" viewBox="-11 -11 43 48" y="46"><path d="M0 13L21 .876v24.248L0 13z" fill="#fff"/></svg><svg width="43" height="48" fill="none" viewBox="-11 -11 43 48" y="94"><path d="M21 13L0 25.124V.876L21 13z" fill="#fff"/></svg><svg width="46" height="46" viewBox="-11 -11 33 46" fill="none" y="142"><path fill-rule="evenodd" clip-rule="evenodd" d="M7.315 24H2.437V11.998H0V7.864h2.437V5.38C2.437 2.007 3.813 0 7.723 0h3.255v4.137H8.944c-1.523 0-1.623.578-1.623 1.656l-.007 2.07H11l-.431 4.135H7.314V24z" fill="#fff"/></svg><svg width="44" height="46" fill="none" viewBox="-11 -11 44 46" y="188"><path fill-rule="evenodd" clip-rule="evenodd" d="M7.368 9.818h7.685V0H22v24h-6.947v-8.727H7.368V24H0V0h7.368v9.818z" fill="#fff"/></svg><svg width="46" height="46" fill="none" viewBox="-11 -11 46 46" y="234"><path d="M17.377 0H6.623A6.63 6.63 0 0 0 0 6.623v10.754A6.63 6.63 0 0 0 6.623 24h10.754A6.63 6.63 0 0 0 24 17.377V6.623A6.63 6.63 0 0 0 17.377 0zm4.494 17.377a4.499 4.499 0 0 1-4.494 4.494H6.623a4.499 4.499 0 0 1-4.494-4.494V6.623A4.499 4.499 0 0 1 6.623 2.13h10.754a4.499 4.499 0 0 1 4.494 4.494v10.754z" fill="#fff"/><path d="M12 6.462A5.545 5.545 0 0 0 6.462 12 5.545 5.545 0 0 0 12 17.538 5.545 5.545 0 0 0 17.538 12 5.545 5.545 0 0 0 12 6.462zm0 9.17A3.635 3.635 0 0 1 8.369 12 3.636 3.636 0 0 1 12 8.369 3.636 3.636 0 0 1 15.631 12 3.635 3.635 0 0 1 12 15.631zm6-11.017a1.39 1.39 0 0 0-.978.406 1.391 1.391 0 0 0-.407.979c0 .364.149.721.407.98.257.256.614.405.978.405.365 0 .721-.149.98-.406.257-.258.405-.615.405-.979a1.39 1.39 0 0 0-.406-.98A1.39 1.39 0 0 0 18 4.616z" fill="#fff"/></svg><svg width="50" height="46" fill="none" viewBox="-11 -11 50 46" y="280"><path fill-rule="evenodd" clip-rule="evenodd" d="M24.701 3.794a6.014 6.014 0 0 0 2.525-3.35 11.14 11.14 0 0 1-3.649 1.47C22.532.734 21.038 0 19.385 0c-3.172 0-5.743 2.713-5.743 6.058 0 .475.048.938.147 1.38-4.773-.253-9.005-2.663-11.84-6.33a6.299 6.299 0 0 0-.777 3.047c0 2.1 1.014 3.955 2.555 5.044a5.539 5.539 0 0 1-2.603-.758v.075c0 2.936 1.979 5.386 4.61 5.94-.483.142-.99.213-1.515.213a5.4 5.4 0 0 1-1.08-.107c.73 2.406 2.851 4.16 5.366 4.207-1.967 1.626-4.444 2.593-7.134 2.593-.464 0-.922-.026-1.371-.083C2.542 22.996 5.562 24 8.806 24c10.567 0 16.343-9.232 16.343-17.238 0-.264-.004-.525-.015-.784A12.008 12.008 0 0 0 28 2.841a11.01 11.01 0 0 1-3.299.953z" fill="#fff"/></svg><svg width="54" height="46" viewBox="-11 -11 54 40" fill="none" y="326"><path fill-rule="evenodd" clip-rule="evenodd" d="M17.57 17.925s.577-.064.873-.377c.27-.287.261-.828.261-.828s-.036-2.53 1.155-2.903c1.174-.367 2.681 2.446 4.28 3.527 1.209.818 2.126.64 2.126.64l4.274-.06s2.236-.135 1.176-1.868c-.088-.142-.618-1.282-3.177-3.625-2.681-2.452-2.321-2.055.906-6.298C31.41 3.55 32.195 1.973 31.95 1.3c-.233-.645-1.68-.474-1.68-.474l-4.81.03s-.358-.049-.622.107c-.259.153-.426.51-.426.51s-.76 1.998-1.776 3.698c-2.143 3.587-3 3.777-3.35 3.554-.815-.52-.612-2.086-.612-3.199 0-3.476.536-4.925-1.04-5.3C17.11.1 16.726.018 15.387.004c-1.716-.017-3.169.006-3.992.403-.548.264-.97.853-.712.887.318.042 1.037.191 1.42.704.492.662.475 2.146.475 2.146s.283 4.093-.662 4.6c-.648.35-1.537-.362-3.448-3.617-.978-1.666-1.717-3.509-1.717-3.509s-.142-.344-.397-.53c-.309-.223-.74-.292-.74-.292l-4.57.029s-.688.018-.94.313c-.224.26-.017.803-.017.803s3.58 8.257 7.633 12.419c3.717 3.815 7.937 3.565 7.937 3.565h1.912z" fill="#fff"/></svg><svg width="50" height="46" viewBox="-11 -11 50 42" fill="none" y="372"><path fill-rule="evenodd" clip-rule="evenodd" d="M11.136 14.22V5.78L18.455 10l-7.319 4.22zM27.415 3.124A3.543 3.543 0 0 0 24.939.597C22.756 0 14 0 14 0S5.244 0 3.06.597A3.543 3.543 0 0 0 .586 3.123C0 5.351 0 10 0 10s0 4.649.585 6.877a3.544 3.544 0 0 0 2.476 2.526C5.244 20 14 20 14 20s8.756 0 10.94-.597a3.544 3.544 0 0 0 2.475-2.526C28 14.649 28 10 28 10s0-4.649-.585-6.877z" fill="#fff"/></svg><svg width="146.91" height="2022" viewBox="-13.42 -13.42 179.23 2466.84" y="418"><svg width="44" height="46" viewBox="-11 -11 44 44" fill="none"><path d="M16.153 14.33h0l.006.001c1.313.434 2.695.654 4.104.654a1.24 1.24 0 0 1 1.237 1.237v4.041c0 .682-.555 1.237-1.237 1.237C9.367 21.5.5 12.633.5 1.737.5 1.055 1.055.5 1.737.5H5.79c.681 0 1.236.555 1.236 1.237 0 1.406.221 2.788.655 4.104a1.25 1.25 0 0 1-.307 1.266l-.025.025-.02.028-1.836 2.438-.191.254.149.281c1.557 2.935 3.463 4.84 6.415 6.415l.282.15.255-.193L14.9 14.62l.03-.022.025-.026c.262-.266.753-.395 1.198-.242z" stroke="#fff"/></svg><svg width="43" height="48" fill="none" viewBox="-11 -11 43 48" y="46"><path d="M0 13L21 .876v24.248L0 13z" fill="#fff"/></svg><svg width="43" height="48" fill="none" viewBox="-11 -11 43 48" y="94"><path d="M21 13L0 25.124V.876L21 13z" fill="#fff"/></svg><svg width="46" height="46" viewBox="-11 -11 33 46" fill="none" y="142"><path fill-rule="evenodd" clip-rule="evenodd" d="M7.315 24H2.437V11.998H0V7.864h2.437V5.38C2.437 2.007 3.813 0 7.723 0h3.255v4.137H8.944c-1.523 0-1.623.578-1.623 1.656l-.007 2.07H11l-.431 4.135H7.314V24z" fill="#fff"/></svg><svg width="44" height="46" fill="none" viewBox="-11 -11 44 46" y="188"><path fill-rule="evenodd" clip-rule="evenodd" d="M7.368 9.818h7.685V0H22v24h-6.947v-8.727H7.368V24H0V0h7.368v9.818z" fill="#fff"/></svg><svg width="46" height="46" fill="none" viewBox="-11 -11 46 46" y="234"><path d="M17.377 0H6.623A6.63 6.63 0 0 0 0 6.623v10.754A6.63 6.63 0 0 0 6.623 24h10.754A6.63 6.63 0 0 0 24 17.377V6.623A6.63 6.63 0 0 0 17.377 0zm4.494 17.377a4.499 4.499 0 0 1-4.494 4.494H6.623a4.499 4.499 0 0 1-4.494-4.494V6.623A4.499 4.499 0 0 1 6.623 2.13h10.754a4.499 4.499 0 0 1 4.494 4.494v10.754z" fill="#fff"/><path d="M12 6.462A5.545 5.545 0 0 0 6.462 12 5.545 5.545 0 0 0 12 17.538 5.545 5.545 0 0 0 17.538 12 5.545 5.545 0 0 0 12 6.462zm0 9.17A3.635 3.635 0 0 1 8.369 12 3.636 3.636 0 0 1 12 8.369 3.636 3.636 0 0 1 15.631 12 3.635 3.635 0 0 1 12 15.631zm6-11.017a1.39 1.39 0 0 0-.978.406 1.391 1.391 0 0 0-.407.979c0 .364.149.721.407.98.257.256.614.405.978.405.365 0 .721-.149.98-.406.257-.258.405-.615.405-.979a1.39 1.39 0 0 0-.406-.98A1.39 1.39 0 0 0 18 4.616z" fill="#fff"/></svg><svg width="50" height="46" fill="none" viewBox="-11 -11 50 46" y="280"><path fill-rule="evenodd" clip-rule="evenodd" d="M24.701 3.794a6.014 6.014 0 0 0 2.525-3.35 11.14 11.14 0 0 1-3.649 1.47C22.532.734 21.038 0 19.385 0c-3.172 0-5.743 2.713-5.743 6.058 0 .475.048.938.147 1.38-4.773-.253-9.005-2.663-11.84-6.33a6.299 6.299 0 0 0-.777 3.047c0 2.1 1.014 3.955 2.555 5.044a5.539 5.539 0 0 1-2.603-.758v.075c0 2.936 1.979 5.386 4.61 5.94-.483.142-.99.213-1.515.213a5.4 5.4 0 0 1-1.08-.107c.73 2.406 2.851 4.16 5.366 4.207-1.967 1.626-4.444 2.593-7.134 2.593-.464 0-.922-.026-1.371-.083C2.542 22.996 5.562 24 8.806 24c10.567 0 16.343-9.232 16.343-17.238 0-.264-.004-.525-.015-.784A12.008 12.008 0 0 0 28 2.841a11.01 11.01 0 0 1-3.299.953z" fill="#fff"/></svg><svg width="54" height="46" viewBox="-11 -11 54 40" fill="none" y="326"><path fill-rule="evenodd" clip-rule="evenodd" d="M17.57 17.925s.577-.064.873-.377c.27-.287.261-.828.261-.828s-.036-2.53 1.155-2.903c1.174-.367 2.681 2.446 4.28 3.527 1.209.818 2.126.64 2.126.64l4.274-.06s2.236-.135 1.176-1.868c-.088-.142-.618-1.282-3.177-3.625-2.681-2.452-2.321-2.055.906-6.298C31.41 3.55 32.195 1.973 31.95 1.3c-.233-.645-1.68-.474-1.68-.474l-4.81.03s-.358-.049-.622.107c-.259.153-.426.51-.426.51s-.76 1.998-1.776 3.698c-2.143 3.587-3 3.777-3.35 3.554-.815-.52-.612-2.086-.612-3.199 0-3.476.536-4.925-1.04-5.3C17.11.1 16.726.018 15.387.004c-1.716-.017-3.169.006-3.992.403-.548.264-.97.853-.712.887.318.042 1.037.191 1.42.704.492.662.475 2.146.475 2.146s.283 4.093-.662 4.6c-.648.35-1.537-.362-3.448-3.617-.978-1.666-1.717-3.509-1.717-3.509s-.142-.344-.397-.53c-.309-.223-.74-.292-.74-.292l-4.57.029s-.688.018-.94.313c-.224.26-.017.803-.017.803s3.58 8.257 7.633 12.419c3.717 3.815 7.937 3.565 7.937 3.565h1.912z" fill="#fff"/></svg><svg width="50" height="46" viewBox="-11 -11 50 42" fill="none" y="372"><path fill-rule="evenodd" clip-rule="evenodd" d="M11.136 14.22V5.78L18.455 10l-7.319 4.22zM27.415 3.124A3.543 3.543 0 0 0 24.939.597C22.756 0 14 0 14 0S5.244 0 3.06.597A3.543 3.543 0 0 0 .586 3.123C0 5.351 0 10 0 10s0 4.649.585 6.877a3.544 3.544 0 0 0 2.476 2.526C5.244 20 14 20 14 20s8.756 0 10.94-.597a3.544 3.544 0 0 0 2.475-2.526C28 14.649 28 10 28 10s0-4.649-.585-6.877z" fill="#fff"/></svg><svg width="152.39" height="2022" viewBox="-11.98 -11.98 165.96 2201.96" y="418"><svg width="44" height="46" viewBox="-11 -11 44 44" fill="none"><path d="M16.153 14.33h0l.006.001c1.313.434 2.695.654 4.104.654a1.24 1.24 0 0 1 1.237 1.237v4.041c0 .682-.555 1.237-1.237 1.237C9.367 21.5.5 12.633.5 1.737.5 1.055 1.055.5 1.737.5H5.79c.681 0 1.236.555 1.236 1.237 0 1.406.221 2.788.655 4.104a1.25 1.25 0 0 1-.307 1.266l-.025.025-.02.028-1.836 2.438-.191.254.149.281c1.557 2.935 3.463 4.84 6.415 6.415l.282.15.255-.193L14.9 14.62l.03-.022.025-.026c.262-.266.753-.395 1.198-.242z" stroke="#fff"/></svg><svg width="43" height="48" fill="none" viewBox="-11 -11 43 48" y="46"><path d="M0 13L21 .876v24.248L0 13z" fill="#fff"/></svg><svg width="43" height="48" fill="none" viewBox="-11 -11 43 48" y="94"><path d="M21 13L0 25.124V.876L21 13z" fill="#fff"/></svg><svg width="46" height="46" viewBox="-11 -11 33 46" fill="none" y="142"><path fill-rule="evenodd" clip-rule="evenodd" d="M7.315 24H2.437V11.998H0V7.864h2.437V5.38C2.437 2.007 3.813 0 7.723 0h3.255v4.137H8.944c-1.523 0-1.623.578-1.623 1.656l-.007 2.07H11l-.431 4.135H7.314V24z" fill="#fff"/></svg><svg width="44" height="46" fill="none" viewBox="-11 -11 44 46" y="188"><path fill-rule="evenodd" clip-rule="evenodd" d="M7.368 9.818h7.685V0H22v24h-6.947v-8.727H7.368V24H0V0h7.368v9.818z" fill="#fff"/></svg><svg width="46" height="46" fill="none" viewBox="-11 -11 46 46" y="234"><path d="M17.377 0H6.623A6.63 6.63 0 0 0 0 6.623v10.754A6.63 6.63 0 0 0 6.623 24h10.754A6.63 6.63 0 0 0 24 17.377V6.623A6.63 6.63 0 0 0 17.377 0zm4.494 17.377a4.499 4.499 0 0 1-4.494 4.494H6.623a4.499 4.499 0 0 1-4.494-4.494V6.623A4.499 4.499 0 0 1 6.623 2.13h10.754a4.499 4.499 0 0 1 4.494 4.494v10.754z" fill="#fff"/><path d="M12 6.462A5.545 5.545 0 0 0 6.462 12 5.545 5.545 0 0 0 12 17.538 5.545 5.545 0 0 0 17.538 12 5.545 5.545 0 0 0 12 6.462zm0 9.17A3.635 3.635 0 0 1 8.369 12 3.636 3.636 0 0 1 12 8.369 3.636 3.636 0 0 1 15.631 12 3.635 3.635 0 0 1 12 15.631zm6-11.017a1.39 1.39 0 0 0-.978.406 1.391 1.391 0 0 0-.407.979c0 .364.149.721.407.98.257.256.614.405.978.405.365 0 .721-.149.98-.406.257-.258.405-.615.405-.979a1.39 1.39 0 0 0-.406-.98A1.39 1.39 0 0 0 18 4.616z" fill="#fff"/></svg><svg width="50" height="46" fill="none" viewBox="-11 -11 50 46" y="280"><path fill-rule="evenodd" clip-rule="evenodd" d="M24.701 3.794a6.014 6.014 0 0 0 2.525-3.35 11.14 11.14 0 0 1-3.649 1.47C22.532.734 21.038 0 19.385 0c-3.172 0-5.743 2.713-5.743 6.058 0 .475.048.938.147 1.38-4.773-.253-9.005-2.663-11.84-6.33a6.299 6.299 0 0 0-.777 3.047c0 2.1 1.014 3.955 2.555 5.044a5.539 5.539 0 0 1-2.603-.758v.075c0 2.936 1.979 5.386 4.61 5.94-.483.142-.99.213-1.515.213a5.4 5.4 0 0 1-1.08-.107c.73 2.406 2.851 4.16 5.366 4.207-1.967 1.626-4.444 2.593-7.134 2.593-.464 0-.922-.026-1.371-.083C2.542 22.996 5.562 24 8.806 24c10.567 0 16.343-9.232 16.343-17.238 0-.264-.004-.525-.015-.784A12.008 12.008 0 0 0 28 2.841a11.01 11.01 0 0 1-3.299.953z" fill="#fff"/></svg><svg width="54" height="46" viewBox="-11 -11 54 40" fill="none" y="326"><path fill-rule="evenodd" clip-rule="evenodd" d="M17.57 17.925s.577-.064.873-.377c.27-.287.261-.828.261-.828s-.036-2.53 1.155-2.903c1.174-.367 2.681 2.446 4.28 3.527 1.209.818 2.126.64 2.126.64l4.274-.06s2.236-.135 1.176-1.868c-.088-.142-.618-1.282-3.177-3.625-2.681-2.452-2.321-2.055.906-6.298C31.41 3.55 32.195 1.973 31.95 1.3c-.233-.645-1.68-.474-1.68-.474l-4.81.03s-.358-.049-.622.107c-.259.153-.426.51-.426.51s-.76 1.998-1.776 3.698c-2.143 3.587-3 3.777-3.35 3.554-.815-.52-.612-2.086-.612-3.199 0-3.476.536-4.925-1.04-5.3C17.11.1 16.726.018 15.387.004c-1.716-.017-3.169.006-3.992.403-.548.264-.97.853-.712.887.318.042 1.037.191 1.42.704.492.662.475 2.146.475 2.146s.283 4.093-.662 4.6c-.648.35-1.537-.362-3.448-3.617-.978-1.666-1.717-3.509-1.717-3.509s-.142-.344-.397-.53c-.309-.223-.74-.292-.74-.292l-4.57.029s-.688.018-.94.313c-.224.26-.017.803-.017.803s3.58 8.257 7.633 12.419c3.717 3.815 7.937 3.565 7.937 3.565h1.912z" fill="#fff"/></svg><svg width="50" height="46" viewBox="-11 -11 50 42" fill="none" y="372"><path fill-rule="evenodd" clip-rule="evenodd" d="M11.136 14.22V5.78L18.455 10l-7.319 4.22zM27.415 3.124A3.543 3.543 0 0 0 24.939.597C22.756 0 14 0 14 0S5.244 0 3.06.597A3.543 3.543 0 0 0 .586 3.123C0 5.351 0 10 0 10s0 4.649.585 6.877a3.544 3.544 0 0 0 2.476 2.526C5.244 20 14 20 14 20s8.756 0 10.94-.597a3.544 3.544 0 0 0 2.475-2.526C28 14.649 28 10 28 10s0-4.649-.585-6.877z" fill="#fff"/></svg><svg width="142" height="1760" viewBox="-11 -11 142 1760" y="418"><svg width="44" height="46" viewBox="-11 -11 44 44" fill="none"><path d="M16.153 14.33h0l.006.001c1.313.434 2.695.654 4.104.654a1.24 1.24 0 0 1 1.237 1.237v4.041c0 .682-.555 1.237-1.237 1.237C9.367 21.5.5 12.633.5 1.737.5 1.055 1.055.5 1.737.5H5.79c.681 0 1.236.555 1.236 1.237 0 1.406.221 2.788.655 4.104a1.25 1.25 0 0 1-.307 1.266l-.025.025-.02.028-1.836 2.438-.191.254.149.281c1.557 2.935 3.463 4.84 6.415 6.415l.282.15.255-.193L14.9 14.62l.03-.022.025-.026c.262-.266.753-.395 1.198-.242z" stroke="#fff"/></svg><svg width="43" height="48" fill="none" viewBox="-11 -11 43 48" y="46"><path d="M0 13L21 .876v24.248L0 13z" fill="#fff"/></svg><svg width="43" height="48" fill="none" viewBox="-11 -11 43 48" y="94"><path d="M21 13L0 25.124V.876L21 13z" fill="#fff"/></svg><svg width="46" height="46" viewBox="-11 -11 33 46" fill="none" y="142"><path fill-rule="evenodd" clip-rule="evenodd" d="M7.315 24H2.437V11.998H0V7.864h2.437V5.38C2.437 2.007 3.813 0 7.723 0h3.255v4.137H8.944c-1.523 0-1.623.578-1.623 1.656l-.007 2.07H11l-.431 4.135H7.314V24z" fill="#fff"/></svg><svg width="44" height="46" fill="none" viewBox="-11 -11 44 46" y="188"><path fill-rule="evenodd" clip-rule="evenodd" d="M7.368 9.818h7.685V0H22v24h-6.947v-8.727H7.368V24H0V0h7.368v9.818z" fill="#fff"/></svg><svg width="46" height="46" fill="none" viewBox="-11 -11 46 46" y="234"><path d="M17.377 0H6.623A6.63 6.63 0 0 0 0 6.623v10.754A6.63 6.63 0 0 0 6.623 24h10.754A6.63 6.63 0 0 0 24 17.377V6.623A6.63 6.63 0 0 0 17.377 0zm4.494 17.377a4.499 4.499 0 0 1-4.494 4.494H6.623a4.499 4.499 0 0 1-4.494-4.494V6.623A4.499 4.499 0 0 1 6.623 2.13h10.754a4.499 4.499 0 0 1 4.494 4.494v10.754z" fill="#fff"/><path d="M12 6.462A5.545 5.545 0 0 0 6.462 12 5.545 5.545 0 0 0 12 17.538 5.545 5.545 0 0 0 17.538 12 5.545 5.545 0 0 0 12 6.462zm0 9.17A3.635 3.635 0 0 1 8.369 12 3.636 3.636 0 0 1 12 8.369 3.636 3.636 0 0 1 15.631 12 3.635 3.635 0 0 1 12 15.631zm6-11.017a1.39 1.39 0 0 0-.978.406 1.391 1.391 0 0 0-.407.979c0 .364.149.721.407.98.257.256.614.405.978.405.365 0 .721-.149.98-.406.257-.258.405-.615.405-.979a1.39 1.39 0 0 0-.406-.98A1.39 1.39 0 0 0 18 4.616z" fill="#fff"/></svg><svg width="50" height="46" fill="none" viewBox="-11 -11 50 46" y="280"><path fill-rule="evenodd" clip-rule="evenodd" d="M24.701 3.794a6.014 6.014 0 0 0 2.525-3.35 11.14 11.14 0 0 1-3.649 1.47C22.532.734 21.038 0 19.385 0c-3.172 0-5.743 2.713-5.743 6.058 0 .475.048.938.147 1.38-4.773-.253-9.005-2.663-11.84-6.33a6.299 6.299 0 0 0-.777 3.047c0 2.1 1.014 3.955 2.555 5.044a5.539 5.539 0 0 1-2.603-.758v.075c0 2.936 1.979 5.386 4.61 5.94-.483.142-.99.213-1.515.213a5.4 5.4 0 0 1-1.08-.107c.73 2.406 2.851 4.16 5.366 4.207-1.967 1.626-4.444 2.593-7.134 2.593-.464 0-.922-.026-1.371-.083C2.542 22.996 5.562 24 8.806 24c10.567 0 16.343-9.232 16.343-17.238 0-.264-.004-.525-.015-.784A12.008 12.008 0 0 0 28 2.841a11.01 11.01 0 0 1-3.299.953z" fill="#fff"/></svg><svg width="54" height="46" viewBox="-11 -11 54 40" fill="none" y="326"><path fill-rule="evenodd" clip-rule="evenodd" d="M17.57 17.925s.577-.064.873-.377c.27-.287.261-.828.261-.828s-.036-2.53 1.155-2.903c1.174-.367 2.681 2.446 4.28 3.527 1.209.818 2.126.64 2.126.64l4.274-.06s2.236-.135 1.176-1.868c-.088-.142-.618-1.282-3.177-3.625-2.681-2.452-2.321-2.055.906-6.298C31.41 3.55 32.195 1.973 31.95 1.3c-.233-.645-1.68-.474-1.68-.474l-4.81.03s-.358-.049-.622.107c-.259.153-.426.51-.426.51s-.76 1.998-1.776 3.698c-2.143 3.587-3 3.777-3.35 3.554-.815-.52-.612-2.086-.612-3.199 0-3.476.536-4.925-1.04-5.3C17.11.1 16.726.018 15.387.004c-1.716-.017-3.169.006-3.992.403-.548.264-.97.853-.712.887.318.042 1.037.191 1.42.704.492.662.475 2.146.475 2.146s.283 4.093-.662 4.6c-.648.35-1.537-.362-3.448-3.617-.978-1.666-1.717-3.509-1.717-3.509s-.142-.344-.397-.53c-.309-.223-.74-.292-.74-.292l-4.57.029s-.688.018-.94.313c-.224.26-.017.803-.017.803s3.58 8.257 7.633 12.419c3.717 3.815 7.937 3.565 7.937 3.565h1.912z" fill="#fff"/></svg><svg width="50" height="46" viewBox="-11 -11 50 42" fill="none" y="372"><path fill-rule="evenodd" clip-rule="evenodd" d="M11.136 14.22V5.78L18.455 10l-7.319 4.22zM27.415 3.124A3.543 3.543 0 0 0 24.939.597C22.756 0 14 0 14 0S5.244 0 3.06.597A3.543 3.543 0 0 0 .586 3.123C0 5.351 0 10 0 10s0 4.649.585 6.877a3.544 3.544 0 0 0 2.476 2.526C5.244 20 14 20 14 20s8.756 0 10.94-.597a3.544 3.544 0 0 0 2.475-2.526C28 14.649 28 10 28 10s0-4.649-.585-6.877z" fill="#fff"/></svg><svg width="120" height="1320" viewBox="-11 -11 120 1320" y="418"><svg width="44" height="46" viewBox="-11 -11 44 44" fill="none"><path d="M16.153 14.33h0l.006.001c1.313.434 2.695.654 4.104.654a1.24 1.24 0 0 1 1.237 1.237v4.041c0 .682-.555 1.237-1.237 1.237C9.367 21.5.5 12.633.5 1.737.5 1.055 1.055.5 1.737.5H5.79c.681 0 1.236.555 1.236 1.237 0 1.406.221 2.788.655 4.104a1.25 1.25 0 0 1-.307 1.266l-.025.025-.02.028-1.836 2.438-.191.254.149.281c1.557 2.935 3.463 4.84 6.415 6.415l.282.15.255-.193L14.9 14.62l.03-.022.025-.026c.262-.266.753-.395 1.198-.242z" stroke="#fff"/></svg><svg width="43" height="48" fill="none" viewBox="-11 -11 43 48" y="46"><path d="M0 13L21 .876v24.248L0 13z" fill="#fff"/></svg><svg width="43" height="48" fill="none" viewBox="-11 -11 43 48" y="94"><path d="M21 13L0 25.124V.876L21 13z" fill="#fff"/></svg><svg width="46" height="46" viewBox="-11 -11 33 46" fill="none" y="142"><path fill-rule="evenodd" clip-rule="evenodd" d="M7.315 24H2.437V11.998H0V7.864h2.437V5.38C2.437 2.007 3.813 0 7.723 0h3.255v4.137H8.944c-1.523 0-1.623.578-1.623 1.656l-.007 2.07H11l-.431 4.135H7.314V24z" fill="#fff"/></svg><svg width="44" height="46" fill="none" viewBox="-11 -11 44 46" y="188"><path fill-rule="evenodd" clip-rule="evenodd" d="M7.368 9.818h7.685V0H22v24h-6.947v-8.727H7.368V24H0V0h7.368v9.818z" fill="#fff"/></svg><svg width="46" height="46" fill="none" viewBox="-11 -11 46 46" y="234"><path d="M17.377 0H6.623A6.63 6.63 0 0 0 0 6.623v10.754A6.63 6.63 0 0 0 6.623 24h10.754A6.63 6.63 0 0 0 24 17.377V6.623A6.63 6.63 0 0 0 17.377 0zm4.494 17.377a4.499 4.499 0 0 1-4.494 4.494H6.623a4.499 4.499 0 0 1-4.494-4.494V6.623A4.499 4.499 0 0 1 6.623 2.13h10.754a4.499 4.499 0 0 1 4.494 4.494v10.754z" fill="#fff"/><path d="M12 6.462A5.545 5.545 0 0 0 6.462 12 5.545 5.545 0 0 0 12 17.538 5.545 5.545 0 0 0 17.538 12 5.545 5.545 0 0 0 12 6.462zm0 9.17A3.635 3.635 0 0 1 8.369 12 3.636 3.636 0 0 1 12 8.369 3.636 3.636 0 0 1 15.631 12 3.635 3.635 0 0 1 12 15.631zm6-11.017a1.39 1.39 0 0 0-.978.406 1.391 1.391 0 0 0-.407.979c0 .364.149.721.407.98.257.256.614.405.978.405.365 0 .721-.149.98-.406.257-.258.405-.615.405-.979a1.39 1.39 0 0 0-.406-.98A1.39 1.39 0 0 0 18 4.616z" fill="#fff"/></svg><svg width="50" height="46" fill="none" viewBox="-11 -11 50 46" y="280"><path fill-rule="evenodd" clip-rule="evenodd" d="M24.701 3.794a6.014 6.014 0 0 0 2.525-3.35 11.14 11.14 0 0 1-3.649 1.47C22.532.734 21.038 0 19.385 0c-3.172 0-5.743 2.713-5.743 6.058 0 .475.048.938.147 1.38-4.773-.253-9.005-2.663-11.84-6.33a6.299 6.299 0 0 0-.777 3.047c0 2.1 1.014 3.955 2.555 5.044a5.539 5.539 0 0 1-2.603-.758v.075c0 2.936 1.979 5.386 4.61 5.94-.483.142-.99.213-1.515.213a5.4 5.4 0 0 1-1.08-.107c.73 2.406 2.851 4.16 5.366 4.207-1.967 1.626-4.444 2.593-7.134 2.593-.464 0-.922-.026-1.371-.083C2.542 22.996 5.562 24 8.806 24c10.567 0 16.343-9.232 16.343-17.238 0-.264-.004-.525-.015-.784A12.008 12.008 0 0 0 28 2.841a11.01 11.01 0 0 1-3.299.953z" fill="#fff"/></svg><svg width="54" height="46" viewBox="-11 -11 54 40" fill="none" y="326"><path fill-rule="evenodd" clip-rule="evenodd" d="M17.57 17.925s.577-.064.873-.377c.27-.287.261-.828.261-.828s-.036-2.53 1.155-2.903c1.174-.367 2.681 2.446 4.28 3.527 1.209.818 2.126.64 2.126.64l4.274-.06s2.236-.135 1.176-1.868c-.088-.142-.618-1.282-3.177-3.625-2.681-2.452-2.321-2.055.906-6.298C31.41 3.55 32.195 1.973 31.95 1.3c-.233-.645-1.68-.474-1.68-.474l-4.81.03s-.358-.049-.622.107c-.259.153-.426.51-.426.51s-.76 1.998-1.776 3.698c-2.143 3.587-3 3.777-3.35 3.554-.815-.52-.612-2.086-.612-3.199 0-3.476.536-4.925-1.04-5.3C17.11.1 16.726.018 15.387.004c-1.716-.017-3.169.006-3.992.403-.548.264-.97.853-.712.887.318.042 1.037.191 1.42.704.492.662.475 2.146.475 2.146s.283 4.093-.662 4.6c-.648.35-1.537-.362-3.448-3.617-.978-1.666-1.717-3.509-1.717-3.509s-.142-.344-.397-.53c-.309-.223-.74-.292-.74-.292l-4.57.029s-.688.018-.94.313c-.224.26-.017.803-.017.803s3.58 8.257 7.633 12.419c3.717 3.815 7.937 3.565 7.937 3.565h1.912z" fill="#fff"/></svg><svg width="50" height="46" viewBox="-11 -11 50 42" fill="none" y="372"><path fill-rule="evenodd" clip-rule="evenodd" d="M11.136 14.22V5.78L18.455 10l-7.319 4.22zM27.415 3.124A3.543 3.543 0 0 0 24.939.597C22.756 0 14 0 14 0S5.244 0 3.06.597A3.543 3.543 0 0 0 .586 3.123C0 5.351 0 10 0 10s0 4.649.585 6.877a3.544 3.544 0 0 0 2.476 2.526C5.244 20 14 20 14 20s8.756 0 10.94-.597a3.544 3.544 0 0 0 2.475-2.526C28 14.649 28 10 28 10s0-4.649-.585-6.877z" fill="#fff"/></svg><svg width="98" height="880" viewBox="-11 -11 98 880" y="418"><svg width="44" height="46" viewBox="-11 -11 44 44" fill="none"><path d="M16.153 14.33h0l.006.001c1.313.434 2.695.654 4.104.654a1.24 1.24 0 0 1 1.237 1.237v4.041c0 .682-.555 1.237-1.237 1.237C9.367 21.5.5 12.633.5 1.737.5 1.055 1.055.5 1.737.5H5.79c.681 0 1.236.555 1.236 1.237 0 1.406.221 2.788.655 4.104a1.25 1.25 0 0 1-.307 1.266l-.025.025-.02.028-1.836 2.438-.191.254.149.281c1.557 2.935 3.463 4.84 6.415 6.415l.282.15.255-.193L14.9 14.62l.03-.022.025-.026c.262-.266.753-.395 1.198-.242z" stroke="#fff"/></svg><svg width="43" height="48" fill="none" viewBox="-11 -11 43 48" y="46"><path d="M0 13L21 .876v24.248L0 13z" fill="#fff"/></svg><svg width="43" height="48" fill="none" viewBox="-11 -11 43 48" y="94"><path d="M21 13L0 25.124V.876L21 13z" fill="#fff"/></svg><svg width="46" height="46" viewBox="-11 -11 33 46" fill="none" y="142"><path fill-rule="evenodd" clip-rule="evenodd" d="M7.315 24H2.437V11.998H0V7.864h2.437V5.38C2.437 2.007 3.813 0 7.723 0h3.255v4.137H8.944c-1.523 0-1.623.578-1.623 1.656l-.007 2.07H11l-.431 4.135H7.314V24z" fill="#fff"/></svg><svg width="44" height="46" fill="none" viewBox="-11 -11 44 46" y="188"><path fill-rule="evenodd" clip-rule="evenodd" d="M7.368 9.818h7.685V0H22v24h-6.947v-8.727H7.368V24H0V0h7.368v9.818z" fill="#fff"/></svg><svg width="46" height="46" fill="none" viewBox="-11 -11 46 46" y="234"><path d="M17.377 0H6.623A6.63 6.63 0 0 0 0 6.623v10.754A6.63 6.63 0 0 0 6.623 24h10.754A6.63 6.63 0 0 0 24 17.377V6.623A6.63 6.63 0 0 0 17.377 0zm4.494 17.377a4.499 4.499 0 0 1-4.494 4.494H6.623a4.499 4.499 0 0 1-4.494-4.494V6.623A4.499 4.499 0 0 1 6.623 2.13h10.754a4.499 4.499 0 0 1 4.494 4.494v10.754z" fill="#fff"/><path d="M12 6.462A5.545 5.545 0 0 0 6.462 12 5.545 5.545 0 0 0 12 17.538 5.545 5.545 0 0 0 17.538 12 5.545 5.545 0 0 0 12 6.462zm0 9.17A3.635 3.635 0 0 1 8.369 12 3.636 3.636 0 0 1 12 8.369 3.636 3.636 0 0 1 15.631 12 3.635 3.635 0 0 1 12 15.631zm6-11.017a1.39 1.39 0 0 0-.978.406 1.391 1.391 0 0 0-.407.979c0 .364.149.721.407.98.257.256.614.405.978.405.365 0 .721-.149.98-.406.257-.258.405-.615.405-.979a1.39 1.39 0 0 0-.406-.98A1.39 1.39 0 0 0 18 4.616z" fill="#fff"/></svg><svg width="50" height="46" fill="none" viewBox="-11 -11 50 46" y="280"><path fill-rule="evenodd" clip-rule="evenodd" d="M24.701 3.794a6.014 6.014 0 0 0 2.525-3.35 11.14 11.14 0 0 1-3.649 1.47C22.532.734 21.038 0 19.385 0c-3.172 0-5.743 2.713-5.743 6.058 0 .475.048.938.147 1.38-4.773-.253-9.005-2.663-11.84-6.33a6.299 6.299 0 0 0-.777 3.047c0 2.1 1.014 3.955 2.555 5.044a5.539 5.539 0 0 1-2.603-.758v.075c0 2.936 1.979 5.386 4.61 5.94-.483.142-.99.213-1.515.213a5.4 5.4 0 0 1-1.08-.107c.73 2.406 2.851 4.16 5.366 4.207-1.967 1.626-4.444 2.593-7.134 2.593-.464 0-.922-.026-1.371-.083C2.542 22.996 5.562 24 8.806 24c10.567 0 16.343-9.232 16.343-17.238 0-.264-.004-.525-.015-.784A12.008 12.008 0 0 0 28 2.841a11.01 11.01 0 0 1-3.299.953z" fill="#fff"/></svg><svg width="54" height="46" viewBox="-11 -11 54 40" fill="none" y="326"><path fill-rule="evenodd" clip-rule="evenodd" d="M17.57 17.925s.577-.064.873-.377c.27-.287.261-.828.261-.828s-.036-2.53 1.155-2.903c1.174-.367 2.681 2.446 4.28 3.527 1.209.818 2.126.64 2.126.64l4.274-.06s2.236-.135 1.176-1.868c-.088-.142-.618-1.282-3.177-3.625-2.681-2.452-2.321-2.055.906-6.298C31.41 3.55 32.195 1.973 31.95 1.3c-.233-.645-1.68-.474-1.68-.474l-4.81.03s-.358-.049-.622.107c-.259.153-.426.51-.426.51s-.76 1.998-1.776 3.698c-2.143 3.587-3 3.777-3.35 3.554-.815-.52-.612-2.086-.612-3.199 0-3.476.536-4.925-1.04-5.3C17.11.1 16.726.018 15.387.004c-1.716-.017-3.169.006-3.992.403-.548.264-.97.853-.712.887.318.042 1.037.191 1.42.704.492.662.475 2.146.475 2.146s.283 4.093-.662 4.6c-.648.35-1.537-.362-3.448-3.617-.978-1.666-1.717-3.509-1.717-3.509s-.142-.344-.397-.53c-.309-.223-.74-.292-.74-.292l-4.57.029s-.688.018-.94.313c-.224.26-.017.803-.017.803s3.58 8.257 7.633 12.419c3.717 3.815 7.937 3.565 7.937 3.565h1.912z" fill="#fff"/></svg><svg width="50" height="46" viewBox="-11 -11 50 42" fill="none" y="372"><path fill-rule="evenodd" clip-rule="evenodd" d="M11.136 14.22V5.78L18.455 10l-7.319 4.22zM27.415 3.124A3.543 3.543 0 0 0 24.939.597C22.756 0 14 0 14 0S5.244 0 3.06.597A3.543 3.543 0 0 0 .586 3.123C0 5.351 0 10 0 10s0 4.649.585 6.877a3.544 3.544 0 0 0 2.476 2.526C5.244 20 14 20 14 20s8.756 0 10.94-.597a3.544 3.544 0 0 0 2.475-2.526C28 14.649 28 10 28 10s0-4.649-.585-6.877z" fill="#fff"/></svg><svg width="76" height="440" viewBox="-11 -11 76 440" y="418"><svg width="44" height="46" viewBox="-11 -11 44 44" fill="none"><path d="M16.153 14.33h0l.006.001c1.313.434 2.695.654 4.104.654a1.24 1.24 0 0 1 1.237 1.237v4.041c0 .682-.555 1.237-1.237 1.237C9.367 21.5.5 12.633.5 1.737.5 1.055 1.055.5 1.737.5H5.79c.681 0 1.236.555 1.236 1.237 0 1.406.221 2.788.655 4.104a1.25 1.25 0 0 1-.307 1.266l-.025.025-.02.028-1.836 2.438-.191.254.149.281c1.557 2.935 3.463 4.84 6.415 6.415l.282.15.255-.193L14.9 14.62l.03-.022.025-.026c.262-.266.753-.395 1.198-.242z" stroke="#fff"/></svg><svg width="43" height="48" fill="none" viewBox="-11 -11 43 48" y="46"><path d="M0 13L21 .876v24.248L0 13z" fill="#fff"/></svg><svg width="43" height="48" fill="none" viewBox="-11 -11 43 48" y="94"><path d="M21 13L0 25.124V.876L21 13z" fill="#fff"/></svg><svg width="46" height="46" viewBox="-11 -11 33 46" fill="none" y="142"><path fill-rule="evenodd" clip-rule="evenodd" d="M7.315 24H2.437V11.998H0V7.864h2.437V5.38C2.437 2.007 3.813 0 7.723 0h3.255v4.137H8.944c-1.523 0-1.623.578-1.623 1.656l-.007 2.07H11l-.431 4.135H7.314V24z" fill="#fff"/></svg><svg width="44" height="46" fill="none" viewBox="-11 -11 44 46" y="188"><path fill-rule="evenodd" clip-rule="evenodd" d="M7.368 9.818h7.685V0H22v24h-6.947v-8.727H7.368V24H0V0h7.368v9.818z" fill="#fff"/></svg><svg width="46" height="46" fill="none" viewBox="-11 -11 46 46" y="234"><path d="M17.377 0H6.623A6.63 6.63 0 0 0 0 6.623v10.754A6.63 6.63 0 0 0 6.623 24h10.754A6.63 6.63 0 0 0 24 17.377V6.623A6.63 6.63 0 0 0 17.377 0zm4.494 17.377a4.499 4.499 0 0 1-4.494 4.494H6.623a4.499 4.499 0 0 1-4.494-4.494V6.623A4.499 4.499 0 0 1 6.623 2.13h10.754a4.499 4.499 0 0 1 4.494 4.494v10.754z" fill="#fff"/><path d="M12 6.462A5.545 5.545 0 0 0 6.462 12 5.545 5.545 0 0 0 12 17.538 5.545 5.545 0 0 0 17.538 12 5.545 5.545 0 0 0 12 6.462zm0 9.17A3.635 3.635 0 0 1 8.369 12 3.636 3.636 0 0 1 12 8.369 3.636 3.636 0 0 1 15.631 12 3.635 3.635 0 0 1 12 15.631zm6-11.017a1.39 1.39 0 0 0-.978.406 1.391 1.391 0 0 0-.407.979c0 .364.149.721.407.98.257.256.614.405.978.405.365 0 .721-.149.98-.406.257-.258.405-.615.405-.979a1.39 1.39 0 0 0-.406-.98A1.39 1.39 0 0 0 18 4.616z" fill="#fff"/></svg><svg width="50" height="46" fill="none" viewBox="-11 -11 50 46" y="280"><path fill-rule="evenodd" clip-rule="evenodd" d="M24.701 3.794a6.014 6.014 0 0 0 2.525-3.35 11.14 11.14 0 0 1-3.649 1.47C22.532.734 21.038 0 19.385 0c-3.172 0-5.743 2.713-5.743 6.058 0 .475.048.938.147 1.38-4.773-.253-9.005-2.663-11.84-6.33a6.299 6.299 0 0 0-.777 3.047c0 2.1 1.014 3.955 2.555 5.044a5.539 5.539 0 0 1-2.603-.758v.075c0 2.936 1.979 5.386 4.61 5.94-.483.142-.99.213-1.515.213a5.4 5.4 0 0 1-1.08-.107c.73 2.406 2.851 4.16 5.366 4.207-1.967 1.626-4.444 2.593-7.134 2.593-.464 0-.922-.026-1.371-.083C2.542 22.996 5.562 24 8.806 24c10.567 0 16.343-9.232 16.343-17.238 0-.264-.004-.525-.015-.784A12.008 12.008 0 0 0 28 2.841a11.01 11.01 0 0 1-3.299.953z" fill="#fff"/></svg><svg width="54" height="46" viewBox="-11 -11 54 40" fill="none" y="326"><path fill-rule="evenodd" clip-rule="evenodd" d="M17.57 17.925s.577-.064.873-.377c.27-.287.261-.828.261-.828s-.036-2.53 1.155-2.903c1.174-.367 2.681 2.446 4.28 3.527 1.209.818 2.126.64 2.126.64l4.274-.06s2.236-.135 1.176-1.868c-.088-.142-.618-1.282-3.177-3.625-2.681-2.452-2.321-2.055.906-6.298C31.41 3.55 32.195 1.973 31.95 1.3c-.233-.645-1.68-.474-1.68-.474l-4.81.03s-.358-.049-.622.107c-.259.153-.426.51-.426.51s-.76 1.998-1.776 3.698c-2.143 3.587-3 3.777-3.35 3.554-.815-.52-.612-2.086-.612-3.199 0-3.476.536-4.925-1.04-5.3C17.11.1 16.726.018 15.387.004c-1.716-.017-3.169.006-3.992.403-.548.264-.97.853-.712.887.318.042 1.037.191 1.42.704.492.662.475 2.146.475 2.146s.283 4.093-.662 4.6c-.648.35-1.537-.362-3.448-3.617-.978-1.666-1.717-3.509-1.717-3.509s-.142-.344-.397-.53c-.309-.223-.74-.292-.74-.292l-4.57.029s-.688.018-.94.313c-.224.26-.017.803-.017.803s3.58 8.257 7.633 12.419c3.717 3.815 7.937 3.565 7.937 3.565h1.912z" fill="#fff"/></svg><svg width="50" height="46" viewBox="-11 -11 50 42" fill="none" y="372"><path fill-rule="evenodd" clip-rule="evenodd" d="M11.136 14.22V5.78L18.455 10l-7.319 4.22zM27.415 3.124A3.543 3.543 0 0 0 24.939.597C22.756 0 14 0 14 0S5.244 0 3.06.597A3.543 3.543 0 0 0 .586 3.123C0 5.351 0 10 0 10s0 4.649.585 6.877a3.544 3.544 0 0 0 2.476 2.526C5.244 20 14 20 14 20s8.756 0 10.94-.597a3.544 3.544 0 0 0 2.475-2.526C28 14.649 28 10 28 10s0-4.649-.585-6.877z" fill="#fff"/></svg></svg></svg></svg></svg></svg></svg></svg></svg></svg></svg></svg>